<svg xmlns="http://www.w3.org/2000/svg" width="500" height="500" viewBox="0 0 500 500">
  <g id="fish-nassau-grouper">
    <path id="_Path_" data-name="&lt;Path&gt;" d="M465.49,251c-10.38,4.25-15.26,7-18.92,7.86-2.91.71,28-13.57,23.3-18.06-23.53-22.32-63.67-42.51-83-49.31s-38.76-12.75-48-14.45-17.44-10.31-32.29-14.46c-4.76-1.32,7.21,5.32,0,3-15.26-4.95-20-8.18-41.76-11.05-3.66-.48,11,6.8,4.62,6.37-4.68-.31-5-2.44-19.84-3.72-2.95-.25,12.6,7.25,8.22,7.46S248,161.28,237,160.53c-2.13-.14,11.84,6.91,7.23,7.34s-10.38-3.19-17.84-2.87c-2.45.1,14.3,6.59,6.91,7.22s-8.12-3-18.45-.85c-1.94.41,13.84,5.1,8.07,6.17s-10.1-3.21-19.88-.29c-1.89.57,16.89,4.54,12.27,5.81s-7.39-3.31-21.09-.23c-2.29.52,20.17,3.63,6.47,5.23-7.09.82-16.63-6.58-26.09-1.91s-6.25-8.46-42.36,16.09c-7.21,4.91-8.85,19-6.54,22.64s9.69,7.86,15,7.86-12.43,10.36-27.89,8-28.84-7.23-44.29-17S33.67,193.32,29,197.89c-5.63,5.55-2,15.94-1.94,29.59,0,8.88-.89,24.66-1.89,37.62-1,13.33,2.39,25.12,1.61,41.45-.46,9.54,4.15,22.31,11.54,15.72s36.44-31.45,64.73-42.61c10-3.93,53.13-.56,58.44-.35s-18.61,2.34-17.58,11.77c2.32,21,18.26,33.34,29,33,40.61-1.27,57-17,59.76-17.46,2.61-.4,45.48,5.63,75.45,2.6a4.29,4.29,0,0,0-.73,2.14c-.65,7.9-11,35.57-2.55,34.13,17.9-3.05,31.12-12.39,40.91-36,1.24-3,1.63-4.65,1.53-5.58,34.51-4.6,59.78-8.45,97.64-24.66,15.66-6.71,22.37-12.54,28.66-18.83C476.27,257.76,475.87,246.72,465.49,251Z"/>
  </g>
</svg>
