<?xml version="1.0" encoding="utf-8"?>

<!DOCTYPE svg PUBLIC "-//W3C//DTD SVG 1.1//EN" "http://www.w3.org/Graphics/SVG/1.1/DTD/svg11.dtd">
<!-- Uploaded to: SVG Repo, www.svgrepo.com, Generator: SVG Repo Mixer Tools -->
<svg height="800px" width="800px" version="1.1" id="_x32_" xmlns="http://www.w3.org/2000/svg" xmlns:xlink="http://www.w3.org/1999/xlink" 
	 viewBox="0 0 512 512"  xml:space="preserve">
<style type="text/css">
	.st0{fill:#000000;}
</style>
<g>
	<path class="st0" d="M495.808,89.989C464.038,34.955,390.332,9.255,256.837,6.659c-0.269-0.008-1.394-0.008-1.678,0
		C121.68,9.255,47.975,34.955,16.188,89.989c-31.771,55.033-17.175,131.714,47.316,248.627c0.269,0.491,0.554,0.974,0.839,1.456
		c69.004,114.302,128.113,165.274,191.655,165.274c63.558,0,122.668-50.972,191.655-165.274c0.284-0.482,0.57-0.965,0.839-1.456
		C513,221.711,527.579,145.031,495.808,89.989z M410.8,317.823c-63.178,104.677-112.156,144.474-154.802,144.474
		c-42.646,0-91.608-39.796-154.802-144.474C42.134,210.757,32.145,148.45,53.468,111.51c21.339-36.931,80.29-59.434,202.53-61.816
		c122.256,2.382,181.207,24.885,202.53,61.824C479.851,148.45,469.862,210.757,410.8,317.823z"/>
	<path class="st0" d="M194.973,344.062c-0.143-4.258-0.253-7.55-0.301-9.862c-0.254-6.119-3.039-9.434-8.406-9.934v-0.134
		c2.849-0.411,5.081-1.718,6.68-3.95c1.504-2.082,2.248-4.741,2.248-7.954c0-4.306-1.329-7.527-3.973-9.664
		c-2.342-1.9-5.54-2.857-9.593-2.857h-18.901v48.582h8.548v-21.086h6.966c2.865,0,4.844,0.578,5.968,1.757
		c1.14,1.179,1.741,3.135,1.836,5.858c0.206,5.572,0.333,8.635,0.38,9.181c0.254,2.09,0.729,3.514,1.425,4.29h9.672
		C195.923,347.331,195.068,345.93,194.973,344.062z M184.398,319.24c-1.503,1.402-3.593,2.098-6.3,2.098h-6.823v-15.775h7.266
		c5.398,0,8.105,2.628,8.105,7.891C186.647,315.9,185.903,317.832,184.398,319.24z"/>
	<path class="st0" d="M219.431,298.757c-6.158,0-10.638,2.034-13.471,6.086c-2.818,4.06-4.227,10.448-4.227,19.154
		c0,8.706,1.409,15.094,4.227,19.155c2.833,4.06,7.313,6.078,13.471,6.078c6.142,0,10.638-2.018,13.471-6.078
		c2.818-4.061,4.227-10.448,4.227-19.155c0-8.706-1.409-15.094-4.227-19.154C230.069,300.79,225.573,298.757,219.431,298.757z
		 M225.953,339.851c-1.393,2.35-3.562,3.53-6.522,3.53c-2.961,0-5.114-1.179-6.443-3.53c-1.805-3-2.707-8.342-2.707-16.06
		c0-7.527,0.902-12.767,2.707-15.719c1.329-2.303,3.482-3.474,6.443-3.474c2.96,0,5.129,1.171,6.522,3.474
		c1.757,2.952,2.628,8.192,2.628,15.719C228.58,331.509,227.71,336.852,225.953,339.851z"/>
	<path class="st0" d="M268.267,334.548c0,5.889-2.596,8.833-7.804,8.833c-5.256,0-7.868-2.944-7.868-8.833v-34.842h-8.564v34.216
		c0,10.219,5.477,15.308,16.432,15.308c10.907,0,16.353-5.089,16.353-15.308v-34.216h-8.548V334.548z"/>
	<polygon class="st0" points="281.009,306.236 293.769,306.236 293.769,348.289 302.317,348.289 302.317,306.236 314.854,306.236 
		314.854,299.706 281.009,299.706 	"/>
	<polygon class="st0" points="328.278,326.245 347.48,326.245 347.48,319.707 328.278,319.707 328.278,306.236 348.683,306.236 
		348.683,299.706 319.73,299.706 319.73,348.289 349.285,348.289 349.285,341.758 328.278,341.758 	"/>
	<path class="st0" d="M275.706,270.729V111.684h-23.808c-2.992,17.073-15.418,25.605-37.28,25.605h-2.928v21.118h31.676v112.322
		H275.706z"/>
</g>
</svg>